<svg height="476pt" viewBox="0 -2 476.47953 476" width="476pt" xmlns="http://www.w3.org/2000/svg"><path d="m287.996094 224.222656-95.023438-107.898437-32.976562.59375 48 107.304687" fill="#ed1c24"/><path d="m462.734375 268.636719-33.296875-19.425781 1.71875 3.433593c1.976562 3.953125.375 8.761719-3.582031 10.734375l-16 8c-1.109375.554688-2.335938.84375-3.578125.84375h-32v-16h30.113281l7.152344-3.578125-8.464844-16.953125c-16.582031-7.539062-34.582031-11.449218-52.800781-11.46875h-272l-40-80h-32l16 96-7.09375 3.542969c-6.34375 3.144531-9.886719 10.066406-8.734375 17.050781 1.148437 6.984375 6.726562 12.402344 13.742187 13.347656l146.085938 20.128907 72 9.929687 71.714844 6.519532c24.15625 1.742187 48.417968 1.332031 72.503906-1.226563l21.144531-2.640625c14.085937-1.761719 27.855469-5.492188 40.902344-11.085938l15.199219-6.511718c4.019531-1.722656 6.726562-5.5625 6.996093-9.929688.269531-4.363281-1.945312-8.507812-5.722656-10.710937zm0 0" fill="#f2f2f2"/><g fill="#00bbd6"><path d="m406.109375 256.222656h-30.113281v16h32c1.238281.011719 2.464844-.261718 3.578125-.800781l16-8c3.957031-1.976563 5.558593-6.78125 3.582031-10.738281l-1.71875-3.429688-12.960938-7.5625c-3.789062-2.1875-7.691406-4.175781-11.6875-5.957031l8.472657 16.949219zm0 0"/><path d="m103.996094 240.222656h16v16h-16zm0 0"/><path d="m135.996094 240.222656h16v16h-16zm0 0"/><path d="m167.996094 240.222656h16v16h-16zm0 0"/><path d="m199.996094 240.222656h16v16h-16zm0 0"/><path d="m231.996094 240.222656h16v16h-16zm0 0"/><path d="m263.996094 240.222656h16v16h-16zm0 0"/><path d="m295.996094 240.222656h16v16h-16zm0 0"/></g><path d="m463.996094 100.222656c0-11.046875-8.953125-20-20-20-4.535156.015625-8.933594 1.589844-12.445313 4.460938 2.425781-12.8125-5.84375-25.210938-18.601562-27.898438-12.761719-2.691406-25.328125 5.316406-28.28125 18.019532-3.8125-2.492188-8.515625-3.222657-12.910157-2.011719-4.394531 1.214843-8.054687 4.257812-10.046874 8.355469-6.046876-1.925782-12.644532-.824219-17.738282 2.953124-5.097656 3.777344-8.0625 9.777344-7.976562 16.121094 0 9.503906 6.6875 17.695313 16 19.597656v.402344h96v-.402344c9.316406-1.902343 16.003906-10.09375 16-19.597656zm0 0" fill="#e6e6e6"/><path d="m303.996094 444.222656c0-11.046875-8.953125-20-20-20-4.535156.015625-8.933594 1.589844-12.445313 4.460938 2.425781-12.8125-5.84375-25.210938-18.601562-27.898438-12.761719-2.691406-25.328125 5.316406-28.28125 18.019532-3.8125-2.492188-8.515625-3.222657-12.910157-2.011719-4.394531 1.214843-8.054687 4.257812-10.046874 8.355469-6.046876-1.925782-12.644532-.824219-17.738282 2.953124-5.097656 3.777344-8.0625 9.777344-7.976562 16.121094 0 9.503906 6.6875 17.695313 16 19.597656v.402344h96v-.402344c9.316406-1.902343 16.003906-10.09375 16-19.597656zm0 0" fill="#e6e6e6"/><path d="m143.996094 52.222656c0-11.046875-8.953125-20-20-20-4.535156.015625-8.933594 1.589844-12.445313 4.460938 2.425781-12.8125-5.84375-25.210938-18.601562-27.898438-12.761719-2.691406-25.328125 5.316406-28.28125 18.019532-3.8125-2.492188-8.515625-3.222657-12.910157-2.011719-4.394531 1.214843-8.054687 4.257812-10.046874 8.355469-6.046876-1.925782-12.644532-.824219-17.738282 2.953124-5.097656 3.777344-8.0625 9.777344-7.976562 16.121094 0 9.503906 6.6875 17.695313 16 19.597656v.402344h96v-.402344c9.316406-1.902343 16.003906-10.09375 16-19.597656zm0 0" fill="#e6e6e6"/><path d="m183.996094 272.222656 88 8-144 128-32-8zm0 0" fill="#ed1c24"/><path d="m79.996094 224.222656h-58.664063l-13.335937-80h32zm0 0" fill="#ed1c24"/><path d="m20.796875 282.0625 134 18.484375-65.390625 95.144531c-1.484375 2.160156-1.816406 4.910156-.886719 7.359375.925781 2.453125 2.992188 4.292969 5.535157 4.929688l32 8c2.566406.644531 5.285156-.019531 7.261718-1.777344l113.945313-101.285156 63.71875 5.789062c8.167969.746094 18.402343 1.097657 28.96875 1.097657 15.117187.082031 30.230469-.703126 45.257812-2.351563l21.144531-2.640625c14.828126-1.851562 29.324219-5.78125 43.0625-11.671875l15.199219-6.511719c6.796875-2.914062 11.375-9.40625 11.828125-16.789062.457032-7.382813-3.289062-14.390625-9.675781-18.113282l-46.257813-26.984374c-20.796874-12.121094-44.4375-18.511719-68.511718-18.519532h-60.382813l-92.632812-105.1875c-1.585938-1.714844-3.8125-2.699218-6.152344-2.710937l-32.972656.59375c-2.699219.042969-5.191407 1.4375-6.632813 3.71875-1.445312 2.277343-1.644531 5.128906-.527344 7.585937l42.957032 96h-110.710938l-37.742187-75.578125c-1.363281-2.726562-4.15625-4.441406-7.203125-4.421875h-32c-2.351563 0-4.582032 1.035156-6.101563 2.828125-1.519531 1.796875-2.171875 4.171875-1.785156 6.488281l15.023437 90.167969-1.808593.90625c-9.445313 4.726563-14.71875 15.050781-13.003907 25.476563 1.714844 10.425781 10.011719 18.519531 20.476563 19.972656zm105.039063 117.359375-16.71875-4.183594 78.816406-114.640625 64.945312 5.902344-11.066406 9.832031-1.09375-.109375-.105469 1.15625zm46.402343-274.738281 17.183594-.3125 80.871094 91.851562h-57.109375zm-140.351562 114.21875-14.441407-86.679688h17.601563l37.78125 75.574219c1.359375 2.714844 4.132813 4.429687 7.167969 4.425781h272c20.59375.019532 40.832031 5.335938 58.777344 15.4375l2.488281 4.984375-7.152344 3.578125h-30.113281v16h32c1.238281.011719 2.464844-.261718 3.578125-.800781l16-8c1.613281-.847656 2.882812-2.222656 3.597656-3.898437l27.53125 16.066406c1.179687.675781 1.875 1.960937 1.789063 3.320312-.082032 1.359375-.929688 2.550782-2.183594 3.078125l-15.199219 6.511719c-12.359375 5.296875-25.402344 8.832031-38.742187 10.503906l-21.144532 2.640625c-23.515625 2.507813-47.207031 2.90625-70.792968 1.191407l-48.800782-4.429688 13.65625-12.136719c2.453125-2.105469 3.402344-5.476562 2.402344-8.546875-1-3.074218-3.75-5.242187-6.96875-5.5l-88-8c-2.882812-.261718-5.675781 1.054688-7.3125 3.4375l-12.449219 18.160156-141.960937-19.609374c-3.515625-.488282-6.308594-3.210938-6.882813-6.71875-.578125-3.503907 1.195313-6.976563 4.371094-8.566407l7.089844-3.546875c3.144531-1.570312 4.894531-5.011718 4.3125-8.476562zm0 0"/><path d="m103.996094 240.222656h16v16h-16zm0 0"/><path d="m135.996094 240.222656h16v16h-16zm0 0"/><path d="m167.996094 240.222656h16v16h-16zm0 0"/><path d="m199.996094 240.222656h16v16h-16zm0 0"/><path d="m231.996094 240.222656h16v16h-16zm0 0"/><path d="m263.996094 240.222656h16v16h-16zm0 0"/><path d="m295.996094 240.222656h16v16h-16zm0 0"/><path d="m439.09375 72.660156c-3.113281-12.769531-13.71875-22.339844-26.742188-24.125-13.023437-1.785156-25.8125 4.574219-32.25 16.039063-8.179687-1.371094-16.492187 1.550781-22.015624 7.734375-14.191407-1.054688-26.917969 8.707031-29.578126 22.691406-2.660156 13.980469 5.589844 27.730469 19.179688 31.964844 1.285156.820312 2.78125 1.257812 4.308594 1.257812h96c1.417968 0 2.804687-.402344 4-1.160156 13.335937-3.964844 21.742187-17.117188 19.734375-30.882812-2.011719-13.765626-13.820313-23.972657-27.734375-23.957032-1.644532 0-3.285156.144532-4.902344.4375zm16.902344 27.5625c.003906 5.703125-4.011719 10.617188-9.597656 11.757813-.304688.0625-.601563.144531-.898438.242187h-91c-.296875-.097656-.601562-.179687-.910156-.242187-6.042969-1.226563-10.171875-6.835938-9.550782-12.96875.621094-6.136719 5.792969-10.800781 11.957032-10.789063 1.164062.023438 2.316406.226563 3.417968.589844 3.734376 1.121094 7.730469-.613281 9.464844-4.105469 1.023438-2.007812 2.84375-3.496093 5.019532-4.105469 2.171874-.605468 4.5-.277343 6.417968.90625 2.191406 1.417969 4.933594 1.679688 7.351563.703126 2.417969-.976563 4.207031-3.074219 4.792969-5.613282 2.132812-8.269531 10.398437-13.394531 18.753906-11.628906 8.355468 1.765625 13.839844 9.792969 12.445312 18.21875-.621094 3.292969.875 6.621094 3.746094 8.34375 2.875 1.726562 6.515625 1.476562 9.128906-.621094 3.570313-2.945312 8.527344-3.550781 12.703125-1.554687 4.175781 1.996093 6.8125 6.238281 6.757813 10.867187zm0 0"/><path d="m283.996094 416.222656c-1.644532 0-3.285156.144532-4.902344.4375-3.113281-12.769531-13.71875-22.339844-26.742188-24.125-13.023437-1.785156-25.8125 4.574219-32.25 16.039063-8.179687-1.371094-16.492187 1.550781-22.015624 7.734375-14.191407-1.054688-26.917969 8.707031-29.578126 22.691406-2.660156 13.980469 5.589844 27.730469 19.179688 31.964844 1.285156.820312 2.78125 1.257812 4.308594 1.257812h96c1.417968 0 2.804687-.402344 4-1.160156 13.335937-3.964844 21.742187-17.117188 19.734375-30.882812-2.011719-13.765626-13.820313-23.972657-27.734375-23.957032zm2.402344 39.757813c-.304688.0625-.601563.144531-.898438.242187h-91c-.296875-.097656-.601562-.179687-.910156-.242187-6.042969-1.226563-10.171875-6.835938-9.550782-12.96875.621094-6.136719 5.792969-10.800781 11.957032-10.789063 1.164062.023438 2.316406.226563 3.417968.589844 3.734376 1.121094 7.730469-.613281 9.464844-4.105469 1.023438-2.007812 2.84375-3.5 5.015625-4.109375 2.175781-.605468 4.503907-.277344 6.421875.910156 2.191406 1.417969 4.933594 1.679688 7.351563.703126 2.417969-.976563 4.207031-3.074219 4.792969-5.613282 2.132812-8.269531 10.398437-13.394531 18.753906-11.628906 8.355468 1.765625 13.839844 9.792969 12.445312 18.21875-.621094 3.292969.875 6.621094 3.746094 8.34375 2.875 1.726562 6.515625 1.476562 9.128906-.621094 3.871094-3.167968 9.304688-3.601562 13.628906-1.085937 4.328126 2.515625 6.636719 7.449219 5.796876 12.382812-.835938 4.933594-4.648438 8.828125-9.5625 9.773438zm0 0"/><path d="m119.09375 24.660156c-3.113281-12.769531-13.71875-22.339844-26.742188-24.125-13.023437-1.785156-25.8125 4.574219-32.25 16.039063-8.179687-1.375-16.492187 1.546875-22.015624 7.734375-14.191407-1.054688-26.917969 8.707031-29.578126 22.691406-2.660156 13.980469 5.589844 27.730469 19.179688 31.964844 1.285156.820312 2.78125 1.257812 4.308594 1.257812h96c1.417968 0 2.804687-.402344 4-1.160156 13.335937-3.964844 21.742187-17.117188 19.734375-30.882812-2.011719-13.765626-13.820313-23.972657-27.734375-23.957032-1.644532 0-3.285156.144532-4.902344.4375zm16.902344 27.5625c.003906 5.703125-4.011719 10.617188-9.597656 11.757813-.304688.0625-.601563.144531-.898438.242187h-91c-.296875-.097656-.597656-.179687-.902344-.242187-6.042968-1.226563-10.171875-6.832031-9.550781-12.964844.617187-6.132813 5.785156-10.800781 11.949219-10.792969 1.164062.023438 2.316406.226563 3.417968.589844 3.734376 1.121094 7.730469-.613281 9.464844-4.105469 1.023438-2.007812 2.84375-3.5 5.015625-4.109375 2.175781-.605468 4.503907-.277344 6.421875.910156 2.191406 1.417969 4.933594 1.679688 7.351563.703126 2.417969-.976563 4.207031-3.074219 4.792969-5.613282 2.132812-8.269531 10.398437-13.394531 18.753906-11.628906 8.355468 1.765625 13.839844 9.792969 12.445312 18.21875-.621094 3.292969.875 6.621094 3.746094 8.34375 2.875 1.726562 6.515625 1.476562 9.128906-.621094 3.570313-2.945312 8.527344-3.550781 12.703125-1.554687 4.175781 1.996093 6.8125 6.238281 6.757813 10.867187zm0 0"/></svg>